<svg width="45" height="44" viewBox="0 0 45 44" fill="none" xmlns="http://www.w3.org/2000/svg">
<path fill-rule="evenodd" clip-rule="evenodd" d="M22.44 0C32.7005 0.142777 41.4683 6.93443 43.7884 16.9808C47.6402 33.676 31.6329 48.2068 15.3855 42.7131C-0.861884 37.2097 -4.76229 15.9294 8.46732 5.01018C12.491 1.68736 17.2124 0.0681437 22.4076 0H22.4368H22.44ZM22.4205 0.756066C18.095 0.81123 14.1784 1.93722 10.5798 4.36768C-3.51949 13.8948 -1.17664 35.399 14.6554 41.639C30.2635 47.7947 46.5239 34.0751 43.1687 17.6622C41.1308 7.71646 32.5285 0.885863 22.4238 0.756066H22.4205Z" fill="#C5A288"/>
<path fill-rule="evenodd" clip-rule="evenodd" d="M19.1755 18.0649C17.7672 18.7723 13.2859 20.7744 10.2162 19.285C8.32767 18.3732 6.67274 17.4743 5.50781 16.8221C6.77009 16.3905 8.55482 15.8064 10.5861 15.2515C13.8733 14.3397 17.9229 17.1174 19.1787 18.0649H19.1755Z" fill="#C5A288"/>
<path fill-rule="evenodd" clip-rule="evenodd" d="M20.2149 15.3612C19.1441 14.4331 15.9381 11.3991 16.1165 8.33911C16.2269 6.45705 16.3988 4.76968 16.5416 3.58203C17.3366 4.48088 18.4302 5.76587 19.5951 7.2553C21.4772 9.67277 20.5686 13.9885 20.2181 15.3612H20.2149Z" fill="#C5A288"/>
<path fill-rule="evenodd" clip-rule="evenodd" d="M20.074 19.4531C19.6359 20.3747 18.153 23.201 15.9951 23.6813C14.6582 23.9766 13.4543 24.1875 12.5977 24.3205C13.0649 23.5937 13.7496 22.5715 14.5544 21.4715C15.8653 19.6868 19.0486 19.4726 20.074 19.4531Z" fill="#C5A288"/>
<path fill-rule="evenodd" clip-rule="evenodd" d="M13.9004 12.1664C13.0567 12.1469 10.4348 11.9749 9.35751 10.5115C8.68581 9.60614 8.12767 8.76894 7.73828 8.17188C8.44568 8.2822 9.43539 8.45418 10.5322 8.69431C12.3104 9.08046 13.537 11.4038 13.8972 12.1664H13.9004Z" fill="#C5A288"/>
<path fill-rule="evenodd" clip-rule="evenodd" d="M20.7399 7.1876C20.2791 6.73331 18.8935 5.24388 19.0655 3.83883C19.1693 2.97567 19.2991 2.20663 19.3965 1.66797C19.7339 2.10604 20.2012 2.72582 20.6944 3.44619C21.4894 4.60788 20.9411 6.57107 20.7366 7.1876H20.7399Z" fill="#C5A288"/>
<path fill-rule="evenodd" clip-rule="evenodd" d="M22.441 27.1807C23.4924 28.5339 24.018 29.0693 24.7254 30.7502C25.17 31.808 25.5204 33.1514 25.5983 35.3353C25.6243 36.0297 25.6275 36.7338 25.6113 37.4218C25.5496 40.0859 25.0077 41.7959 24.6281 43.1329C24.654 43.4411 24.8487 43.5871 25.1505 43.5644C25.9812 43.4963 26.6205 39.4044 26.6594 38.6905C27.435 39.6251 28.2592 40.8582 28.7719 41.7667C28.7589 41.916 28.8076 42.062 28.9146 42.1788C29.5117 42.7824 30.2321 42.2762 29.8881 41.5136C29.3657 40.3325 27.7594 38.1713 26.7178 37.1395C26.747 35.8837 26.7113 34.6084 26.575 33.3786C27.5355 34.5111 28.6356 35.6241 29.2813 36.9967C29.5571 37.5873 30.112 39.4336 30.7448 40.7154C31.0109 41.2638 31.2607 41.6337 31.4717 41.6434C32.1855 41.6791 32.0817 40.9587 31.9259 40.5174C31.1991 38.4309 31.2478 38.6581 31.3483 36.3639C31.4165 34.7512 31.6631 33.0963 32.3835 32.6907C32.4743 32.7945 32.562 32.9048 32.6496 33.0119C33.5906 34.2612 35.0573 36.7598 35.3688 38.2752C35.3688 38.577 35.6154 38.8236 35.9237 38.8236C36.232 38.8236 36.4721 38.577 36.4721 38.2752C36.1281 36.3477 34.7004 33.888 33.5289 32.3532C33.1168 31.8113 32.6009 31.331 32.0103 30.8897C33.4738 31.159 34.8723 31.3959 36.4981 31.9962C36.5662 32.0222 36.6473 32.0514 36.7382 32.0838C36.881 33.3526 37.2444 35.8317 38.2146 36.3412C38.5034 36.4385 38.8182 36.286 38.9155 35.9972C39.0032 35.7441 38.8961 35.4748 38.6819 35.345C38.3315 34.8648 38.1043 33.6025 37.9193 32.5511C38.6527 32.8594 39.2238 33.1352 39.5548 33.4305C39.61 33.7388 39.9474 33.9951 40.2752 33.9464C40.7295 33.8783 40.8787 33.3299 40.5964 33.0054C39.9442 31.9605 37.8447 31.3115 36.8777 30.9611C32.9254 29.5041 30.8973 30.3089 27.4122 28.0017C28.3857 28.1932 29.5247 28.2483 30.8519 28.284C33.8664 28.3749 34.47 27.8297 37.4553 29.3257C38.2438 29.7183 40.3238 30.8767 40.5867 31.7626C40.6354 32.0579 40.9144 32.2688 41.213 32.2169C41.5147 32.1682 41.7224 31.8859 41.6737 31.5841C41.2422 30.0687 39.266 28.9979 37.9518 28.3392C36.6116 27.6675 35.6739 27.3657 34.8204 27.2424C36.4818 26.6388 37.6143 26.4474 39.24 26.3436C39.5678 26.9893 41.492 30.2277 42.287 30.2894L42.631 29.2672C41.6348 28.2645 41.0994 27.4468 40.4536 26.2819L40.5088 26.2754C41.4304 26.2397 42.0112 26.3046 42.8646 26.6194C43.1534 26.7232 43.4682 26.5772 43.572 26.2916C43.7992 25.4285 42.6245 25.3636 42.0696 25.2825C39.2757 24.8768 36.4461 25.4123 33.8275 26.4344C31.6599 27.2781 28.707 27.5344 26.5458 26.5999C25.3842 26.1002 24.6443 25.1105 24.0764 23.037C23.3269 20.2723 23.5151 19.4351 25.4555 17.2447C27.6394 14.7721 30.5955 13.9836 33.8567 13.7045C35.5668 13.5617 36.9816 13.6072 38.3996 13.9122C39.3536 14.1199 40.8236 14.7559 41.8035 15.142C42.3325 15.3497 42.5856 15.4308 42.777 15.0739C42.9295 14.7916 42.3779 14.1621 41.2811 13.6656C38.961 12.6207 36.2774 12.3968 33.7658 12.6077C32.2699 12.731 30.9168 12.9582 29.7032 13.3281C29.82 13.1139 29.9433 12.8835 30.0666 12.6337C31.2283 10.333 32.6625 5.40073 32.2959 2.94106C32.2537 2.63929 32.1239 2.48028 31.8416 2.37969C31.5463 2.29857 31.251 2.47704 31.1699 2.77233C31.1407 2.90861 31.1764 4.39155 31.1342 4.80366C30.9752 6.31905 30.5923 8.20111 30.0212 9.91768C28.6291 14.0582 28.1132 13.2827 25.5042 15.6288C24.7092 16.3491 23.9953 17.2155 23.3496 18.2637C23.2587 17.3518 23.1906 13.6169 23.1354 9.8398C23.1095 7.99343 23.3009 2.24016 22.9083 0.695569C22.8401 0.426239 22.759 0.166646 22.4475 0.160156C22.1327 0.166646 22.0484 0.426239 21.9802 0.695569C21.5876 2.24016 21.7758 7.99343 21.7531 9.8398C21.6979 13.6201 21.6298 17.3551 21.5454 18.2637C20.8997 17.2188 20.1858 16.3491 19.3843 15.6288C16.7818 13.2827 16.2594 14.0582 14.8673 9.91768C14.2962 8.20111 13.9133 6.3158 13.7543 4.80366C13.7121 4.39155 13.7478 2.90861 13.7186 2.77233C13.644 2.47704 13.3422 2.29857 13.0469 2.37969C12.7646 2.47704 12.6348 2.63929 12.5926 2.94106C12.2292 5.40397 13.657 10.333 14.8219 12.6337C14.9452 12.8868 15.0685 13.1139 15.1918 13.3281C13.9717 12.9582 12.6251 12.731 11.1227 12.6077C8.61108 12.4001 5.92751 12.6207 3.60738 13.6656C2.51059 14.1653 1.95895 14.7916 2.11146 15.0739C2.30291 15.4308 2.55926 15.3497 3.08494 15.142C4.06491 14.7559 5.53488 14.1199 6.48889 13.9122C7.91017 13.6039 9.32496 13.5617 11.0318 13.7045C14.2995 13.9803 17.2491 14.7689 19.4329 17.2447C21.3767 19.4351 21.5616 20.2723 20.812 23.037C20.2507 25.1105 19.5076 26.1034 18.3426 26.5999C16.188 27.5344 13.2351 27.2781 11.061 26.4344C8.45207 25.4123 5.61925 24.8768 2.81886 25.2825C2.26398 25.3636 1.0958 25.4317 1.31646 26.2916C1.42029 26.5739 1.74154 26.7232 2.02385 26.6194C2.887 26.3046 3.45811 26.2365 4.38617 26.2754L4.43484 26.2819C3.78909 27.4436 3.25368 28.2645 2.25749 29.2672L2.60145 30.2894C3.39646 30.2277 5.32071 26.9893 5.65494 26.3436C7.27416 26.4474 8.40664 26.6388 10.0745 27.2424C9.21139 27.3657 8.27685 27.6675 6.94318 28.3392C5.62573 28.9979 3.64957 30.0687 3.22123 31.5841C3.17256 31.8859 3.37374 32.1682 3.67552 32.2169C3.9773 32.2656 4.25962 32.0579 4.30829 31.7626C4.56788 30.8767 6.64789 29.7183 7.43317 29.3257C10.4185 27.8297 11.0285 28.3781 14.0366 28.284C15.367 28.2483 16.506 28.1932 17.4827 28.0017C13.9944 30.3089 11.9631 29.5041 8.01725 30.9611C7.05026 31.3115 4.95078 31.9573 4.29531 33.0054C4.013 33.3331 4.15902 33.8783 4.62305 33.9464C4.95079 33.9951 5.28177 33.7388 5.34343 33.4305C5.67116 33.1352 6.24876 32.8594 6.97563 32.5511C6.79067 33.6025 6.57001 34.8648 6.21307 35.345C5.9989 35.4748 5.89182 35.7441 5.97943 35.9972C6.07678 36.286 6.39154 36.4418 6.68034 36.3412C7.66031 35.8317 8.01725 33.3494 8.15678 32.0838C8.24764 32.0546 8.32877 32.0222 8.39691 31.9962C10.0226 31.3927 11.4179 31.159 12.8847 30.8897C12.3006 31.3343 11.7781 31.8113 11.366 32.3532C10.1979 33.8848 8.77657 36.3477 8.42287 38.2752C8.42287 38.577 8.66948 38.8236 8.97126 38.8236C9.27304 38.8236 9.52614 38.577 9.52614 38.2752C9.84739 36.7598 11.3044 34.2612 12.2519 33.0119C12.333 32.9081 12.4174 32.7977 12.5115 32.6907C13.2384 33.0963 13.4785 34.7512 13.5466 36.3639C13.6505 38.6581 13.6991 38.4309 12.969 40.5174C12.8165 40.962 12.7159 41.6791 13.4233 41.6434C13.631 41.6304 13.8841 41.2605 14.1567 40.7154C14.783 39.4369 15.3443 37.5905 15.6201 36.9967C16.2594 35.6241 17.3692 34.5111 18.3232 33.3786C18.1869 34.6084 18.1577 35.8837 18.1804 37.1395C17.1388 38.1746 15.539 40.3325 15.0101 41.5136C14.6661 42.2762 15.3865 42.7824 15.9836 42.1788C16.0874 42.062 16.1361 41.9128 16.1263 41.7667C16.6358 40.8549 17.4633 39.6251 18.2388 38.6905C18.281 39.4044 18.917 43.4963 19.7477 43.5644C20.0495 43.5904 20.2539 43.4411 20.2701 43.1329C19.8872 41.7959 19.3486 40.0859 19.2869 37.4218C19.2739 36.7338 19.2739 36.0297 19.2999 35.3353C19.381 33.1514 19.7315 31.808 20.1728 30.7502C20.8802 29.0693 21.4026 28.5339 22.4637 27.1807H22.441ZM14.6596 36.4645C14.6045 34.6928 14.3287 32.8075 13.3 31.9346C15.2502 30.3283 18.2485 29.2575 20.1306 27.2456C17.9825 32.7523 19.3972 29.7572 15.6331 34.8583C15.3021 35.3126 14.9744 35.861 14.6596 36.4645ZM30.2126 36.4645C29.9044 35.861 29.5799 35.3126 29.2391 34.8583C25.4718 29.7572 26.8866 32.7523 24.7417 27.2456C26.6302 29.2575 29.622 30.3283 31.5787 31.9346C30.5501 32.8075 30.2678 34.6928 30.2126 36.4645Z" fill="#C5A288"/>
<path fill-rule="evenodd" clip-rule="evenodd" d="M25.6947 18.0649C27.103 18.7723 31.5907 20.7744 34.6539 19.285C36.549 18.3732 38.2039 17.4743 39.3623 16.8221C38.1065 16.3905 36.3153 15.8064 34.2905 15.2515C31.0034 14.3397 26.9537 17.1174 25.6914 18.0649H25.6947Z" fill="#C5A288"/>
<path fill-rule="evenodd" clip-rule="evenodd" d="M24.6592 15.3612C25.73 14.4331 28.9295 11.3991 28.751 8.33911C28.6407 6.45705 28.4687 4.76968 28.3259 3.58203C27.5309 4.48088 26.4374 5.76587 25.2725 7.2553C23.3904 9.67277 24.299 13.9885 24.6559 15.3612H24.6592Z" fill="#C5A288"/>
<path fill-rule="evenodd" clip-rule="evenodd" d="M24.8008 19.4531C25.2324 20.3747 26.7153 23.201 28.8797 23.6813C30.2101 23.9766 31.414 24.1875 32.2706 24.3205C31.8034 23.5937 31.1252 22.5715 30.3139 21.4715C29.003 19.6868 25.8197 19.4726 24.8008 19.4531Z" fill="#C5A288"/>
<path fill-rule="evenodd" clip-rule="evenodd" d="M30.9766 12.1664C31.8138 12.1469 34.4357 11.9749 35.5195 10.5115C36.1847 9.60614 36.7428 8.76894 37.1322 8.17188C36.4313 8.2822 35.4384 8.45418 34.3383 8.69431C32.5601 9.08046 31.3335 11.4038 30.9766 12.1664Z" fill="#C5A288"/>
<path fill-rule="evenodd" clip-rule="evenodd" d="M24.1321 7.1876C24.5994 6.73331 25.9785 5.24388 25.813 3.83883C25.7027 2.97567 25.5729 2.20663 25.4755 1.66797C25.138 2.10604 24.6708 2.72582 24.184 3.44619C23.3825 4.60788 23.9309 6.57107 24.1354 7.1876H24.1321Z" fill="#C5A288"/>
<path fill-rule="evenodd" clip-rule="evenodd" d="M13.8171 20.573C13.3304 21.2609 11.7112 23.3247 9.89076 23.3929C8.77126 23.4351 7.76208 23.4221 7.05469 23.4123C7.54143 22.8899 8.24234 22.1695 9.05357 21.394C10.384 20.1447 12.9864 20.44 13.8171 20.5763V20.573Z" fill="#C5A288"/>
<path fill-rule="evenodd" clip-rule="evenodd" d="M31.0547 20.573C31.5414 21.2609 33.1607 23.3247 34.9811 23.3929C36.1006 23.4351 37.1097 23.4221 37.8236 23.4123C37.3304 22.8899 36.636 22.1695 35.8183 21.394C34.4943 20.1447 31.8854 20.44 31.0547 20.5763V20.573Z" fill="#C5A288"/>
</svg>
